HIERARCHY
ROOT Root
{
  OFFSET 0.0 0.0 0.0
  CHANNELS 6 Xposition Yposition Zposition Zrotation Yrotation Xrotation
  JOINT Hips
  {
    OFFSET 0.0 100.0 0.0
    CHANNELS 6 Xposition Yposition Zposition Zrotation Yrotation Xrotation
    JOINT Spine1
    {
      OFFSET 5.003913 -0.037094 -0.013727
      CHANNELS 3 Zrotation Yrotation Xrotation
      JOINT Spine2
      {
        OFFSET 7.125363 -1e-06 0.0
        CHANNELS 3 Zrotation Yrotation Xrotation
        JOINT Chest
        {
          OFFSET 7.594027 1e-06 0.0
          CHANNELS 3 Zrotation Yrotation Xrotation
          JOINT Neck1
          {
            OFFSET 26.313086 -0.460272 -0.181672
            CHANNELS 3 Zrotation Yrotation Xrotation
            JOINT Neck2
            {
              OFFSET 8.045911 0.0 0.0
              CHANNELS 3 Zrotation Yrotation Xrotation
              JOINT Head
              {
                OFFSET 6.432774 0.0 0.0
                CHANNELS 3 Zrotation Yrotation Xrotation
                JOINT HeadEnd
                {
                  OFFSET 16.169773 0.06451 0.00362
                  CHANNELS 3 Zrotation Yrotation Xrotation
                }
                JOINT Jaw
                {
                  OFFSET 0.108741 3.12938 0.002639
                  CHANNELS 3 Zrotation Yrotation Xrotation
                }
                JOINT LeftEye
                {
                  OFFSET 4.45173 8.166359 3.206392
                  CHANNELS 3 Zrotation Yrotation Xrotation
                }
                JOINT RightEye
                {
                  OFFSET 4.436895 8.135758 -3.222429
                  CHANNELS 3 Zrotation Yrotation Xrotation
                }
              }
            }
          }
          JOINT LeftShoulder
          {
            OFFSET 23.218927 5.195579 1.621656
            CHANNELS 3 Zrotation Yrotation Xrotation
            JOINT LeftArm
            {
              OFFSET 15.902118 2e-06 -2e-06
              CHANNELS 3 Zrotation Yrotation Xrotation
              JOINT LeftForeArm
              {
                OFFSET 28.739307 0.0 -1e-06
                CHANNELS 3 Zrotation Yrotation Xrotation
                JOINT LeftHand
                {
                  OFFSET 27.093981 -4e-06 0.0
                  CHANNELS 3 Zrotation Yrotation Xrotation
                  JOINT LeftHandThumb1
                  {
                    OFFSET 2.276781 3.380274 0.83384
                    CHANNELS 3 Zrotation Yrotation Xrotation
                    JOINT LeftHandThumb2
                    {
                      OFFSET 4.705309 -1e-06 -1e-06
                      CHANNELS 3 Zrotation Yrotation Xrotation
                      JOINT LeftHandThumb3
                      {
                        OFFSET 2.798515 0.0 3e-06
                        CHANNELS 3 Zrotation Yrotation Xrotation
                        JOINT LeftHandThumbEnd
                        {
                          OFFSET 3.180793 4e-06 -4e-06
                          CHANNELS 3 Zrotation Yrotation Xrotation
                        }
                      }
                    }
                  }
                  JOINT LeftHandIndex1
                  {
                    OFFSET 3.247786 2.352677 0.137192
                    CHANNELS 3 Zrotation Yrotation Xrotation
                    JOINT LeftHandIndex2
                    {
                      OFFSET 6.367095 1e-06 0.0
                      CHANNELS 3 Zrotation Yrotation Xrotation
                      JOINT LeftHandIndex3
                      {
                        OFFSET 3.662364 0.0 0.0
                        CHANNELS 3 Zrotation Yrotation Xrotation
                        JOINT LeftHandIndex4
                        {
                          OFFSET 2.329242 4e-06 -4e-06
                          CHANNELS 3 Zrotation Yrotation Xrotation
                          JOINT LeftHandIndexEnd
                          {
                            OFFSET 2.767823 1e-06 0.0
                            CHANNELS 3 Zrotation Yrotation Xrotation
                          }
                        }
                      }
                    }
                  }
                  JOINT LeftHandMiddle1
                  {
                    OFFSET 3.163612 0.945023 -0.406112
                    CHANNELS 3 Zrotation Yrotation Xrotation
                    JOINT LeftHandMiddle2
                    {
                      OFFSET 6.276789 3e-06 0.0
                      CHANNELS 3 Zrotation Yrotation Xrotation
                      JOINT LeftHandMiddle3
                      {
                        OFFSET 4.35652 -1e-06 4e-06
                        CHANNELS 3 Zrotation Yrotation Xrotation
                        JOINT LeftHandMiddle4
                        {
                          OFFSET 2.996877 0.0 8e-06
                          CHANNELS 3 Zrotation Yrotation Xrotation
                          JOINT LeftHandMiddleEnd
                          {
                            OFFSET 2.323256 3e-06 -4e-06
                            CHANNELS 3 Zrotation Yrotation Xrotation
                          }
                        }
                      }
                    }
                  }
                  JOINT LeftHandRing1
                  {
                    OFFSET 2.882606 -0.309162 0.107445
                    CHANNELS 3 Zrotation Yrotation Xrotation
                    JOINT LeftHandRing2
                    {
                      OFFSET 6.033198 0.0 4e-06
                      CHANNELS 3 Zrotation Yrotation Xrotation
                      JOINT LeftHandRing3
                      {
                        OFFSET 4.350578 3e-06 0.0
                        CHANNELS 3 Zrotation Yrotation Xrotation
                        JOINT LeftHandRing4
                        {
                          OFFSET 2.651321 2e-06 -7e-06
                          CHANNELS 3 Zrotation Yrotation Xrotation
                          JOINT LeftHandRingEnd
                          {
                            OFFSET 1.937663 1e-06 -4e-06
                            CHANNELS 3 Zrotation Yrotation Xrotation
                          }
                        }
                      }
                    }
                  }
                  JOINT LeftHandPinky1
                  {
                    OFFSET 2.865315 -1.525436 0.575687
                    CHANNELS 3 Zrotation Yrotation Xrotation
                    JOINT LeftHandPinky2
                    {
                      OFFSET 5.54936 1e-06 -8e-06
                      CHANNELS 3 Zrotation Yrotation Xrotation
                      JOINT LeftHandPinky3
                      {
                        OFFSET 3.070974 0.0 -4e-06
                        CHANNELS 3 Zrotation Yrotation Xrotation
                        JOINT LeftHandPinky4
                        {
                          OFFSET 1.549672 1e-06 0.0
                          CHANNELS 3 Zrotation Yrotation Xrotation
                          JOINT LeftHandPinkyEnd
                          {
                            OFFSET 1.952123 0.0 0.0
                            CHANNELS 3 Zrotation Yrotation Xrotation
                          }
                        }
                      }
                    }
                  }
                }
              }
            }
          }
          JOINT RightShoulder
          {
            OFFSET 23.161716 5.296122 -1.380114
            CHANNELS 3 Zrotation Yrotation Xrotation
            JOINT RightArm
            {
              OFFSET -16.027195 -2e-06 1.1e-05
              CHANNELS 3 Zrotation Yrotation Xrotation
              JOINT RightForeArm
              {
                OFFSET -28.736639 4e-06 2e-06
                CHANNELS 3 Zrotation Yrotation Xrotation
                JOINT RightHand
                {
                  OFFSET -27.133619 6e-06 0.0
                  CHANNELS 3 Zrotation Yrotation Xrotation
                  JOINT RightHandThumb1
                  {
                    OFFSET -2.274328 -3.351035 -0.83067
                    CHANNELS 3 Zrotation Yrotation Xrotation
                    JOINT RightHandThumb2
                    {
                      OFFSET -4.703594 -3e-06 2e-06
                      CHANNELS 3 Zrotation Yrotation Xrotation
                      JOINT RightHandThumb3
                      {
                        OFFSET -2.794935 -4e-06 -3e-06
                        CHANNELS 3 Zrotation Yrotation Xrotation
                        JOINT RightHandThumbEnd
                        {
                          OFFSET -3.183852 4e-06 1e-06
                          CHANNELS 3 Zrotation Yrotation Xrotation
                        }
                      }
                    }
                  }
                  JOINT RightHandIndex1
                  {
                    OFFSET -3.253496 -2.33755 -0.127667
                    CHANNELS 3 Zrotation Yrotation Xrotation
                    JOINT RightHandIndex2
                    {
                      OFFSET -6.344434 0.0 0.0
                      CHANNELS 3 Zrotation Yrotation Xrotation
                      JOINT RightHandIndex3
                      {
                        OFFSET -3.654871 0.0 -8e-06
                        CHANNELS 3 Zrotation Yrotation Xrotation
                        JOINT RightHandIndex4
                        {
                          OFFSET -2.327586 -1e-06 0.0
                          CHANNELS 3 Zrotation Yrotation Xrotation
                          JOINT RightHandIndexEnd
                          {
                            OFFSET -2.770001 3e-06 8e-06
                            CHANNELS 3 Zrotation Yrotation Xrotation
                          }
                        }
                      }
                    }
                  }
                  JOINT RightHandMiddle1
                  {
                    OFFSET -3.168223 -0.944764 0.411762
                    CHANNELS 3 Zrotation Yrotation Xrotation
                    JOINT RightHandMiddle2
                    {
                      OFFSET -6.266691 -1e-06 -4e-06
                      CHANNELS 3 Zrotation Yrotation Xrotation
                      JOINT RightHandMiddle3
                      {
                        OFFSET -4.348901 0.0 0.0
                        CHANNELS 3 Zrotation Yrotation Xrotation
                        JOINT RightHandMiddle4
                        {
                          OFFSET -3.00024 2e-06 -4e-06
                          CHANNELS 3 Zrotation Yrotation Xrotation
                          JOINT RightHandMiddleEnd
                          {
                            OFFSET -2.321477 -4e-06 -4e-06
                            CHANNELS 3 Zrotation Yrotation Xrotation
                          }
                        }
                      }
                    }
                  }
                  JOINT RightHandRing1
                  {
                    OFFSET -2.885654 0.293261 -0.119232
                    CHANNELS 3 Zrotation Yrotation Xrotation
                    JOINT RightHandRing2
                    {
                      OFFSET -6.032835 -1e-06 -4e-06
                      CHANNELS 3 Zrotation Yrotation Xrotation
                      JOINT RightHandRing3
                      {
                        OFFSET -4.33881 0.0 -4e-06
                        CHANNELS 3 Zrotation Yrotation Xrotation
                        JOINT RightHandRing4
                        {
                          OFFSET -2.654903 -4e-06 -4e-06
                          CHANNELS 3 Zrotation Yrotation Xrotation
                          JOINT RightHandRingEnd
                          {
                            OFFSET -1.935122 0.0 4e-06
                            CHANNELS 3 Zrotation Yrotation Xrotation
                          }
                        }
                      }
                    }
                  }
                  JOINT RightHandPinky1
                  {
                    OFFSET -2.866241 1.503904 -0.60527
                    CHANNELS 3 Zrotation Yrotation Xrotation
                    JOINT RightHandPinky2
                    {
                      OFFSET -5.553177 -2e-06 0.0
                      CHANNELS 3 Zrotation Yrotation Xrotation
                      JOINT RightHandPinky3
                      {
                        OFFSET -3.062664 -1e-06 -4e-06
                        CHANNELS 3 Zrotation Yrotation Xrotation
                        JOINT RightHandPinky4
                        {
                          OFFSET -1.546529 2e-06 4e-06
                          CHANNELS 3 Zrotation Yrotation Xrotation
                          JOINT RightHandPinkyEnd
                          {
                            OFFSET -1.952341 0.0 -4e-06
                            CHANNELS 3 Zrotation Yrotation Xrotation
                          }
                        }
                      }
                    }
                  }
                }
              }
            }
          }
        }
      }
    }
    JOINT LeftLeg
    {
      OFFSET -8.443107 2.567604 10.043214
      CHANNELS 3 Zrotation Yrotation Xrotation
      JOINT LeftShin
      {
        OFFSET 43.229198 1e-06 -1e-06
        CHANNELS 3 Zrotation Yrotation Xrotation
        JOINT LeftFoot
        {
          OFFSET 42.298611 1e-06 1e-06
          CHANNELS 3 Zrotation Yrotation Xrotation
          JOINT LeftToeBase
          {
            OFFSET 14.165858 1e-06 0.0
            CHANNELS 3 Zrotation Yrotation Xrotation
            JOINT LeftToeEnd
            {
              OFFSET 6.7141 -0.234461 0.0
              CHANNELS 3 Zrotation Yrotation Xrotation
            }
          }
        }
      }
    }
    JOINT RightLeg
    {
      OFFSET -8.303923 2.592729 -10.047278
      CHANNELS 3 Zrotation Yrotation Xrotation
      JOINT RightShin
      {
        OFFSET -43.369682 0.0 1e-06
        CHANNELS 3 Zrotation Yrotation Xrotation
        JOINT RightFoot
        {
          OFFSET -42.260784 4e-06 2e-06
          CHANNELS 3 Zrotation Yrotation Xrotation
          JOINT RightToeBase
          {
            OFFSET -14.222245 -2e-06 -1e-06
            CHANNELS 3 Zrotation Yrotation Xrotation
            JOINT RightToeEnd
            {
              OFFSET -6.660062 0.232574 -2e-06
              CHANNELS 3 Zrotation Yrotation Xrotation
            }
          }
        }
      }
    }
  }
}
MOTION
Frames: 5
Frame Time: 0.03333333333333333
0.0 0.0 0.0 0.0 -0.0 0.0 -1.00632 99.502007 -0.196853 90.417976 3.685295 89.575294 -1.368001 -0.678243 -0.376108 -11.146318 -1.46263 -2.011019 11.679563 1.381843 -5.211661 29.036009 -7.880916 2.662066 -2.874294 -0.924091 5.639436 -31.826077 2.096517 5.844677 6e-06 0.0 0.0 0.038382 0.017639 -0.099461 -0.168645 0.00451 -0.118746 -0.165567 0.029169 -0.063501 -163.319885 -81.207993 171.87529 64.208824 3.331915 -37.178989 22.001707 -0.084589 0.401331 1.202547 -2.667854 -6.276033 17.636625 -26.322729 52.411182 -19.466658 -14.395597 29.410381 -0.0 -8.774821 -2e-06 15.137147 -17.175379 6.15786 -0.609775 -1.795653 -3.889328 -4.807087 -11.046807 -2.937851 5e-06 -20.976013 1e-06 -5.019969 -25.033548 -4.031876 7e-06 0.0 -2e-06 -10.634531 -5.686968 -3.565587 10.573275 -17.922947 -3.113902 3e-06 -13.821206 -0.0 -0.501775 -31.181501 -4.027013 -11.846374 -59.228218 7.834791 -13.982711 -7.150196 -2.875042 13.772726 -8.401489 -3.21824 0.347735 -34.21154 0.771658 -0.963027 -17.733366 2.621017 2e-06 1e-06 -1e-06 -17.346413 -20.095207 -4.201781 21.757555 -1.638377 3.866424 1e-06 -6.338821 -1e-06 -1.697589 -22.591738 -6.194002 -0.0 -3e-06 -3e-06 28.60887 -67.947731 165.201248 33.981133 -54.357536 2.80156 15.225721 -0.532478 0.168794 6.170885 -7.448876 8.04592 22.182114 -20.375895 49.933308 -16.701815 -16.743528 28.476524 -3e-06 -12.6906 -0.0 16.067448 -17.525724 2.616575 -0.105919 -1.513858 -4.275881 -5.039039 -5.612872 -2.953557 4e-06 -11.020525 -4e-06 -6.111296 -15.895334 -3.840472 0.0 -1e-06 -1e-06 -10.283368 -5.680287 -4.341835 11.028291 -11.302406 -2.372632 -1.384267 -14.238582 -6.320122 -0.625437 -26.924191 -3.827597 -4.064699 -49.574074 -3.762181 -13.708523 -7.363475 -3.72094 18.141148 -14.052742 -3.242674 8e-06 -18.78727 -1e-06 -0.429709 -8.456046 2.555501 -0.0 1e-06 2e-06 -15.923532 -20.094482 -5.473586 30.419214 -7.190831 1.735925 4e-06 -8.162929 -2e-06 -1.861899 -22.861471 -6.167942 0.0 -5e-06 -0.0 -177.959366 -3.477038 -3.148082 14.663894 -0.062306 0.129359 -81.504517 -4.696852 -6.676695 -5.088551 1.445049 2.164848 -0.999998 -0.0 0.0 4.081156 -3.78532 -0.790916 13.72303 -0.016305 0.127266 -83.34407 3.760682 -3.015036 -4.198769 0.68339 1.710415 -1.000001 0.0 -0.0 
0.0 0.0 0.0 0.0 -0.0 0.0 -1.087974 99.485672 -0.137791 90.260605 3.892505 88.988396 -1.212593 -0.745508 -0.460021 -11.136125 -1.47287 -2.088037 11.691058 1.429876 -5.231881 29.299515 -8.141346 2.652983 -2.858986 -0.830076 5.934246 -31.957174 2.061835 6.154699 6e-06 -0.0 0.0 0.048219 0.023158 -0.028774 -0.158568 -0.003872 -0.048464 -0.14929 0.048668 0.006579 -165.317215 -82.074318 173.381256 64.233551 5.801418 -36.933613 20.661219 0.486453 0.331989 1.747307 -0.945643 -7.403311 17.636625 -26.322729 52.411194 -19.46666 -14.395594 29.410385 -0.0 -8.774821 -0.0 15.103473 -17.183323 6.25243 -0.609776 -1.795654 -3.889329 -4.807088 -11.04681 -2.937852 3e-06 -20.976013 -1e-06 -5.019972 -25.033556 -4.031881 6e-06 2e-06 1e-06 -10.634533 -5.68697 -3.565588 10.573272 -17.922947 -3.1139 2e-06 -13.821209 0.0 -0.501775 -31.181501 -4.027017 -11.938641 -59.335609 7.923137 -13.982713 -7.150198 -2.875044 13.772727 -8.40149 -3.218242 0.347734 -34.211544 0.771654 -0.963028 -17.73337 2.621017 -1e-06 2e-06 -1e-06 -17.346416 -20.095217 -4.201784 21.757557 -1.638375 3.866427 1e-06 -6.338823 0.0 -1.697588 -22.591745 -6.194007 -1e-06 -2e-06 -2e-06 28.875341 -68.029861 165.051529 34.060711 -54.496174 2.533106 15.316375 -0.448084 0.131793 5.918653 -7.495604 8.025482 22.182108 -20.375895 49.933319 -16.701817 -16.74353 28.47653 -3e-06 -12.690601 0.0 16.119303 -17.519569 2.541903 -0.10592 -1.513857 -4.275881 -5.039041 -5.612871 -2.953556 6e-06 -11.02052 -4e-06 -6.111294 -15.895334 -3.840471 -0.0 0.0 1e-06 -10.283369 -5.680288 -4.341837 11.028293 -11.302404 -2.372634 -1.384268 -14.238579 -6.320121 -0.625437 -26.924187 -3.8276 -4.022191 -49.666939 -3.797965 -13.708524 -7.363475 -3.72094 18.14115 -14.052739 -3.242676 9e-06 -18.78727 -3e-06 -0.42971 -8.456043 2.555503 -0.0 1e-06 1e-06 -15.923532 -20.094482 -5.473586 30.41921 -7.190827 1.735924 4e-06 -8.162929 -4e-06 -1.861901 -22.861467 -6.167942 -0.0 -5e-06 -1e-06 -177.576691 -3.647872 -3.353163 14.645638 -0.06381 0.192374 -81.617508 -4.967384 -6.969933 -5.082242 1.478552 2.187229 -0.999999 0.0 -0.0 4.281508 -3.642263 -0.828542 13.64604 -0.04818 0.147194 -83.255966 4.286092 -2.759435 -4.108736 0.663916 1.712854 -1.000003 -0.0 -0.0 
0.0 0.0 0.0 0.0 -0.0 0.0 -1.149124 99.467674 -0.110611 90.087616 4.028017 88.1987 -1.139639 -0.761587 -0.497772 -11.141689 -1.505919 -2.169075 11.758897 1.500295 -5.246716 29.49398 -8.506361 2.657079 -2.873471 -0.767289 6.292128 -31.97916 2.017623 6.476759 6e-06 0.0 -1e-06 0.051391 0.028107 0.001783 -0.159967 -0.005405 -0.012257 -0.147017 0.059763 0.030087 -166.97525 -82.60302 174.770874 64.174629 7.981966 -37.423893 19.786282 1.051577 0.344332 1.845439 1.364878 -8.636641 17.636629 -26.322737 52.411198 -19.466663 -14.395597 29.410385 -1e-06 -8.774821 -2e-06 15.090443 -17.221386 6.307016 -0.609776 -1.795654 -3.889329 -4.807087 -11.046809 -2.937853 6e-06 -20.976015 1e-06 -5.019969 -25.033556 -4.03188 7e-06 0.0 -1e-06 -10.634533 -5.686969 -3.565588 10.573276 -17.922951 -3.113899 4e-06 -13.821209 0.0 -0.501776 -31.181505 -4.027014 -12.038698 -59.351749 8.001393 -13.982712 -7.150197 -2.875041 13.77273 -8.401492 -3.218243 0.347737 -34.211552 0.771654 -0.963028 -17.733372 2.621021 0.0 0.0 0.0 -17.346416 -20.095217 -4.201783 21.757561 -1.638376 3.866425 1e-06 -6.338824 0.0 -1.697585 -22.591745 -6.194006 -0.0 -3e-06 -1e-06 28.93578 -68.104851 164.972305 34.008595 -54.592838 2.5685 15.246987 -0.323836 0.108793 5.634134 -7.392279 7.473434 22.182117 -20.375898 49.933323 -16.701818 -16.743528 28.476534 -3e-06 -12.6906 0.0 16.174896 -17.502748 2.524345 -0.10592 -1.513856 -4.275883 -5.039041 -5.612872 -2.953557 3e-06 -11.020527 -3e-06 -6.111296 -15.895339 -3.840471 -0.0 0.0 0.0 -10.283371 -5.680288 -4.34184 11.028294 -11.302407 -2.372635 -1.384268 -14.238585 -6.320123 -0.625436 -26.9242 -3.827601 -3.960577 -49.754456 -3.860993 -13.708526 -7.363477 -3.72094 18.141153 -14.052743 -3.242676 7e-06 -18.787271 -1e-06 -0.429711 -8.456045 2.555505 -0.0 -0.0 -1e-06 -15.923536 -20.094484 -5.473585 30.419218 -7.190829 1.735924 3e-06 -8.162929 -2e-06 -1.861902 -22.861469 -6.167943 1e-06 -6e-06 -1e-06 -177.284897 -3.790319 -3.593223 14.690001 -0.075896 0.189901 -81.750778 -5.36283 -7.151563 -5.083432 1.476276 2.195951 -1.0 0.0 0.0 4.260014 -3.514792 -0.626168 13.751284 -0.061123 0.155145 -83.265236 4.870387 -2.547591 -4.037128 0.664336 1.717958 -1.000002 0.0 -0.0 
0.0 0.0 0.0 0.0 -0.0 0.0 -1.169257 99.457497 -0.096824 89.916092 4.102994 87.252754 -1.099268 -0.746944 -0.505408 -11.150541 -1.532729 -2.206546 11.827283 1.591937 -5.281227 29.649975 -8.928787 2.67278 -2.886132 -0.766107 6.671476 -32.020504 2.031113 6.820863 6e-06 0.0 -0.0 0.051146 0.03018 0.006276 -0.158861 -0.005104 -0.001795 -0.141572 0.062901 0.026864 -167.708618 -82.873795 175.419403 64.000488 9.644648 -38.325779 19.429537 1.445292 0.351857 1.641914 3.926549 -9.65383 17.636633 -26.322731 52.411179 -19.46666 -14.395598 29.410385 -1e-06 -8.774822 -2e-06 15.068138 -17.261522 6.320113 -0.609776 -1.795653 -3.889329 -4.807088 -11.046809 -2.937849 5e-06 -20.976015 1e-06 -5.019971 -25.033552 -4.031878 6e-06 2e-06 0.0 -10.634535 -5.68697 -3.565588 10.573272 -17.922951 -3.113901 3e-06 -13.821209 1e-06 -0.501779 -31.181505 -4.027012 -12.000481 -59.189026 7.938159 -13.982713 -7.150198 -2.875043 13.772727 -8.401491 -3.218242 0.347734 -34.211555 0.771656 -0.963031 -17.73337 2.621022 1e-06 -0.0 -0.0 -17.346416 -20.095215 -4.201783 21.757557 -1.638375 3.866428 1e-06 -6.338823 -1e-06 -1.697589 -22.591743 -6.194005 -1e-06 -4e-06 -3e-06 28.889326 -68.209183 165.00589 34.134914 -54.614445 2.385823 14.91399 -0.236594 0.095318 5.369056 -7.248947 7.044462 22.182119 -20.375896 49.933327 -16.701809 -16.74353 28.476528 -1e-06 -12.690601 -1e-06 16.209028 -17.503277 2.545774 -0.10592 -1.513857 -4.275883 -5.039041 -5.612871 -2.953556 3e-06 -11.020525 -2e-06 -6.111297 -15.895334 -3.840472 -0.0 0.0 -1e-06 -10.283372 -5.680288 -4.341839 11.028295 -11.302402 -2.372633 -1.384268 -14.238581 -6.320122 -0.62544 -26.924183 -3.827601 -3.894261 -49.818764 -3.886312 -13.708526 -7.363477 -3.720939 18.14115 -14.052737 -3.242674 5e-06 -18.78727 -2e-06 -0.429712 -8.456045 2.555504 -0.0 0.0 -1e-06 -15.923539 -20.094484 -5.473586 30.419218 -7.190826 1.735927 3e-06 -8.162927 0.0 -1.861902 -22.861467 -6.167941 -0.0 -3e-06 -2e-06 -177.004578 -3.875491 -3.805204 14.667838 -0.078048 0.156417 -81.848183 -5.950129 -7.283724 -5.104253 1.47552 2.197492 -0.999999 -0.0 0.0 4.13707 -3.360087 -0.236695 13.874927 -0.062052 0.161807 -83.226028 5.40509 -2.318365 -4.067199 0.664199 1.71778 -1.000002 -0.0 -0.0 
0.0 0.0 0.0 0.0 -0.0 0.0 -1.144975 99.461067 -0.079391 89.76857 4.113682 86.265816 -1.094117 -0.733389 -0.489098 -11.149096 -1.558274 -2.246163 11.867941 1.684846 -5.312863 29.725224 -9.349356 2.707326 -2.878897 -0.733287 6.991251 -32.082821 2.121457 7.165509 6e-06 -0.0 -1e-06 0.063786 0.03148 0.008271 -0.151657 -0.003411 0.002538 -0.123487 0.062655 0.025669 -168.074509 -83.082787 175.796646 63.542328 10.858667 -38.861107 19.422771 1.24273 0.304112 1.424454 5.041319 -9.4145 17.636631 -26.322737 52.411201 -19.466661 -14.395597 29.410389 -1e-06 -8.774821 -1e-06 15.077764 -17.230185 6.255035 -0.609776 -1.795654 -3.889331 -4.807089 -11.046812 -2.937851 5e-06 -20.976019 -1e-06 -5.01997 -25.03356 -4.031878 6e-06 -0.0 -1e-06 -10.634535 -5.686972 -3.565587 10.573277 -17.922951 -3.113903 4e-06 -13.821211 -1e-06 -0.501774 -31.181505 -4.027016 -11.881881 -58.985104 7.806408 -13.982712 -7.150198 -2.875044 13.77273 -8.401493 -3.218242 0.347738 -34.211555 0.771655 -0.963029 -17.733374 2.621018 1e-06 -1e-06 0.0 -17.346418 -20.095221 -4.201783 21.757557 -1.638375 3.866425 3e-06 -6.338822 -2e-06 -1.697588 -22.591749 -6.194007 -1e-06 -4e-06 -2e-06 28.812551 -68.362259 165.104553 34.399261 -54.65572 1.817772 14.370812 -0.21976 0.076457 5.085601 -7.152167 6.939064 22.182114 -20.375895 49.933319 -16.701811 -16.74353 28.476532 -3e-06 -12.6906 -1e-06 16.233047 -17.486954 2.55686 -0.105919 -1.513856 -4.275882 -5.039039 -5.61287 -2.953556 5e-06 -11.020521 -2e-06 -6.111296 -15.895332 -3.84047 1e-06 -1e-06 -1e-06 -10.283369 -5.680287 -4.34184 11.028294 -11.302405 -2.372634 -1.384268 -14.238581 -6.320122 -0.625438 -26.924189 -3.827603 -3.857449 -49.848202 -3.847893 -13.708519 -7.363473 -3.720941 18.141146 -14.052739 -3.242675 6e-06 -18.78727 -1e-06 -0.429711 -8.456044 2.555503 -2e-06 -0.0 0.0 -15.923532 -20.094481 -5.473586 30.41921 -7.190827 1.735925 4e-06 -8.162926 -1e-06 -1.861903 -22.861465 -6.167937 1e-06 -5e-06 -3e-06 -176.715729 -3.902936 -4.074296 14.507332 -0.068809 0.136636 -81.877777 -6.578755 -7.367212 -5.105514 1.49106 2.199354 -0.999999 0.0 -0.0 3.975188 -3.330728 0.259169 13.910309 -0.045944 0.166134 -83.118759 5.921437 -2.259496 -4.062619 0.651774 1.715047 -1.000003 -0.0 0.0 
